<?xml version="1.0" encoding="utf-8"?>
<!-- Generator: Adobe Illustrator 21.0.0, SVG Export Plug-In . SVG Version: 6.00 Build 0)  -->
<svg version="1.1" id="Layer_1" xmlns="http://www.w3.org/2000/svg" xmlns:xlink="http://www.w3.org/1999/xlink" x="0px" y="0px"
	 width="100px" height="20px" viewBox="0 0 100 20" style="enable-background:new 0 0 100 20;" xml:space="preserve">
<style type="text/css">
	.st0{fill:#FFFFFF;}
</style>
<g>
	<path class="st0" d="M95.8,2.7c0-1.1,0.9-2,2-2c0.5,0,1,0.2,1.4,0.6c0.4,0.4,0.6,0.9,0.6,1.4c0,0.5-0.2,1.1-0.6,1.4
		c-0.4,0.4-0.9,0.6-1.4,0.6C96.7,4.7,95.8,3.8,95.8,2.7z M95.6,2.7c0,1.2,1,2.2,2.2,2.2c0.6,0,1.1-0.2,1.6-0.6
		c0.4-0.4,0.6-1,0.6-1.6c0-0.6-0.2-1.1-0.6-1.6c-0.4-0.4-1-0.6-1.6-0.6C96.6,0.5,95.6,1.5,95.6,2.7z M97,4h0.3V3H98
		c0.1,0,0.2,0,0.3,0c0.1,0.1,0.2,0.2,0.2,0.3l0,0.4c0,0.1,0,0.2,0,0.2c0,0,0,0.1,0,0.1h0.4V3.9c-0.1,0-0.1-0.1-0.1-0.1
		c0,0,0-0.1,0-0.2l0-0.3c0-0.1,0-0.2-0.1-0.3c0-0.1-0.1-0.1-0.2-0.2c0.1-0.1,0.2-0.1,0.2-0.2c0.1-0.1,0.1-0.2,0.1-0.3
		c0-0.3-0.1-0.5-0.3-0.6c-0.1-0.1-0.3-0.1-0.4-0.1H97V4z M97.3,2.7V1.9H98c0.1,0,0.2,0,0.3,0c0.1,0.1,0.2,0.2,0.2,0.3
		c0,0.2,0,0.3-0.1,0.3c-0.1,0.1-0.2,0.1-0.3,0.1H97.3z M9.1,5.7L0,19.7h6.2l8.7-13.4L9.1,5.7z M46.3,5.4V0.2H28.7
		c-2.4,0.1-3.4,1.3-4.2,2.1C23.6,3.2,23.2,5,23.2,5V0.2c0,0-8.6,0-9.3,0c-0.7,0-1.4,0.3-1.9,1c-0.5,0.7-2.7,4.2-2.7,4.2H46.3z
		 M94.2,5.4V0.2H75.3c-2.4,0.1-3.4,1.3-4.2,2.1C70.3,3.2,69.8,5,69.8,5v0.4L94.2,5.4z M52.5,0.2h-5.3v5.2h5.3V0.2z M69.8,0.2h-5.3
		v5.2h5.3V0.2z M69.8,7.3L64.6,7v6c0,0,0,1.7-1.7,1.7c-1.7,0-8.9,0-8.9,0s-1.5-0.1-1.5-1.7c0-1.6,0-6.8,0-6.8l-5.2-0.4V15
		c0.8,4.4,4.9,4.8,4.9,4.8s0.4,0,0.5,0h12c0,0,5.1-0.4,5.1-5.3C69.8,9.6,69.8,7.3,69.8,7.3z M17.8,19.7h24.6
		c4.3-0.9,4.7-4.7,4.7-4.7c0.2-1.1,0.1-2.1,0.1-2.1c-0.1-0.8-1.6-4.2-4.8-4.5c-1.9-0.2-19-1.5-19-1.5c0.3,1.7,1.1,2.5,1.6,3
		c1.2,1.1,3.1,1.4,3.1,1.4c0.5,0,13.2,1.1,13.2,1.1c0.4,0,1.2,0.1,1.2,1.1c0,0.1-0.1,1-1.1,1c-1.2,0-18.4,0-18.4,0V6.9l-5.1-0.4
		V19.7z M69.8,19.8h18.8c4.7-0.3,5.4-4.7,5.4-4.7c0.2-1.2,0-2.1,0-2.1c-0.1-1-1.6-4.2-4.9-4.5c-1.9-0.2-19.1-1.2-19.1-1.2
		c0.5,1.7,1.2,2.3,1.7,2.8c1.2,1.1,3,1.4,3,1.4c0.4,0,13.3,1.1,13.3,1.1c0.4,0,1.2,0.1,1.2,1.1c0,0.3-0.2,0.6-0.3,0.8
		c0,0-0.5,0.2-0.9,0.2c-1.2,0-18.3,0-18.3,0L69.8,19.8z"/>
</g>
</svg>
