<?xml version="1.0" encoding="UTF-8"?><svg id="_圖層_1" xmlns="http://www.w3.org/2000/svg" xmlns:xlink="http://www.w3.org/1999/xlink" viewBox="0 0 252.93 265.73"><defs><style>.cls-1{stroke-width:1.5px;}.cls-1,.cls-2,.cls-3,.cls-4,.cls-5,.cls-6{stroke-miterlimit:10;}.cls-1,.cls-3,.cls-4,.cls-5,.cls-6{fill:none;}.cls-1,.cls-5,.cls-6{stroke:#686868;}.cls-2{fill:#f01;stroke:#f01;}.cls-2,.cls-3,.cls-4{stroke-width:2px;}.cls-3{stroke:url(#_未命名漸層_13);}.cls-4{stroke:url(#_未命名漸層_13-2);}.cls-7{fill:#686868;}.cls-7,.cls-8{stroke-width:0px;}.cls-8{fill:#fbfd00;}.cls-5{stroke-width:.25px;}.cls-6{stroke-width:.5px;}</style><radialGradient id="_未命名漸層_13" cx="-68.3" cy="197.22" fx="-68.3" fy="197.22" r="50.82" gradientTransform="translate(115.6) rotate(-180) scale(1 -1)" gradientUnits="userSpaceOnUse"><stop offset="0" stop-color="#d5a84e"/><stop offset=".07" stop-color="#ddb65f"/><stop offset=".18" stop-color="#f3da8b"/><stop offset=".19" stop-color="#f4db8c"/><stop offset=".41" stop-color="#f9f3e5"/><stop offset=".95" stop-color="#d4a84d"/></radialGradient><radialGradient id="_未命名漸層_13-2" cx="-183.14" cy="197.22" fx="-183.14" fy="197.22" r="50.82" gradientTransform="translate(252.2)" xlink:href="#_未命名漸層_13"/></defs><polyline class="cls-5" points="77.53 214.59 79.64 214.59 83.16 219.24 83.16 225.71 79.5 225.71"/><polyline class="cls-5" points="175.72 214.59 173.6 214.59 170.08 219.24 170.08 225.71 173.74 225.71"/><rect class="cls-1" x="106.12" y="42.46" width="40.67" height="146.38"/><polyline class="cls-6" points="70.95 80.48 70.95 96.85 91.79 100.1"/><line class="cls-6" x1="91.79" y1="176.53" x2="91.79" y2="150.92"/><polyline class="cls-6" points="75.85 248.71 91.79 248.71 91.79 188.83"/><polyline class="cls-6" points="91.79 139.65 91.79 80.48 1.32 80.48 1.32 226.37 42.71 226.37 42.71 248.71 69.06 248.71"/><rect class="cls-8" x="105.25" y="153.78" width="6.3" height="18.81"/><rect class="cls-6" x="95.96" y="192.27" width="61.29" height="16.16"/><path class="cls-6" d="M107.46,208.43h38.3v31.54c0,4.83-3.92,8.75-8.75,8.75h-20.81c-4.83,0-8.75-3.92-8.75-8.75v-31.54h0Z"/><line class="cls-6" x1="161.15" y1="208.43" x2="91.79" y2="208.43"/><line class="cls-6" x1="161.15" y1="248.71" x2="91.79" y2="248.71"/><polyline class="cls-6" points="181.98 80.48 181.98 96.85 161.15 100.1"/><line class="cls-6" x1="161.15" y1="176.53" x2="161.15" y2="149.88"/><polyline class="cls-6" points="177.08 248.71 161.15 248.71 161.15 188.77"/><polyline class="cls-6" points="161.15 139.65 161.15 80.48 251.62 80.48 251.62 226.37 210.23 226.37 210.23 248.71 183.87 248.71"/><rect class="cls-8" x="141.24" y="153.78" width="6.3" height="18.81" transform="translate(288.79 326.36) rotate(-180)"/><path class="cls-3" d="M149.02,157.93c2.55-6.28,5.69-10.76,8.21-13.95,5.04-6.4,13.55-9.26,21.28-6.69,13.55,4.49,11.08,20.2,11.08,20.2,0,0-2.64,22.15-4.52,33.04-1.88,10.89-5.44,30.03-5.44,45.99,0,15.96,12.58,16.14,12.58,16.14h26.26c.38,0,.7.26.8.62.4,1.52.14,3.26-.05,4.18-.08.38-.41.64-.8.64h-26.47c-2.47,0-4.94-.44-7.17-1.49-7.54-3.52-9.22-11.23-10.39-17.28-1.78-10.23,2.25-36.42,2.25-36.42,0,0,6.01-39.23,6.95-47.49s-4.5-10.89-4.5-10.89c-13.54-6.79-19.45,6.38-19.45,6.38l-3.59,6.79c-.9,1.99-1.09,4.23-.54,6.35l10.49,23.11c.24.84-.39,1.67-1.26,1.67h-3.48c-.58,0-2.09-.38-2.26-.93l-10.26-21.89c-.57-2.02-.48-6.13.31-8.08Z"/><path class="cls-4" d="M104.52,164.58c.24-2.15.06-5.09-.57-6.65-2.55-6.28-5.69-10.76-8.21-13.95-5.04-6.4-13.55-9.26-21.28-6.69-13.55,4.49-11.08,20.2-11.08,20.2,0,0,2.64,22.15,4.52,33.04s5.44,30.03,5.44,45.99-12.58,16.14-12.58,16.14h-26.26c-.38,0-.7.26-.8.62-.4,1.52-.14,3.26.05,4.18.08.38.41.64.8.64h26.47c2.47,0,4.94-.44,7.17-1.49,7.54-3.52,9.22-11.23,10.39-17.28,1.78-10.23-2.25-36.42-2.25-36.42,0,0-6.01-39.23-6.95-47.49s4.5-10.89,4.5-10.89c13.54-6.79,19.45,6.38,19.45,6.38l3.59,6.79c.9,1.99,1.09,4.23.54,6.35"/><path class="cls-2" d="M97.48,164.05l-10.49,23.11c-.24.84.39,1.67,1.26,1.67h3.48c.58,0,2.09-.38,2.26-.93l10.26-21.89c.11-.4.2-.89.26-1.43l-7.04-.53Z"/><path class="cls-2" d="M148.47,164.58c.06.54.15,1.02.26,1.43l10.26,21.89c.17.55,1.68.93,2.26.93h3.48c.87,0,1.5-.83,1.26-1.67l-10.49-23.11-7.04.53Z"/><path class="cls-7" d="M124.38,166.51h2.5c2.06,0,3.08.99,3.08,2.96v2.36h-8.66v-2.36c0-1.98,1.03-2.96,3.08-2.96ZM126.81,168.17h-2.39c-.58,0-1,.11-1.27.34-.27.22-.4.59-.4,1.11v.57h5.74v-.52c0-.55-.14-.94-.42-1.16-.28-.22-.7-.34-1.26-.34Z"/><path class="cls-7" d="M124.38,159.84h2.5c2.06,0,3.08.99,3.08,2.96v2.36h-8.66v-2.36c0-1.98,1.03-2.96,3.08-2.96ZM126.81,161.5h-2.39c-.58,0-1,.11-1.27.34-.27.22-.4.59-.4,1.1v.58h5.74v-.52c0-.55-.14-.94-.42-1.16-.28-.22-.7-.34-1.26-.34Z"/><path class="cls-7" d="M123.88,153.16c1.14,0,1.88.44,2.21,1.31l3.86-1.63v1.78l-3.53,1.44v.79h3.53v1.66h-8.66v-2.44c0-.9.21-1.61.64-2.13.43-.52,1.08-.77,1.95-.77ZM123.86,154.81c-.39,0-.69.1-.89.29s-.31.48-.31.86v.88h2.4v-.89c0-.37-.1-.65-.31-.85s-.5-.29-.89-.29Z"/><path class="cls-7" d="M122.66,150.46h1.8c-.17-.24-.3-.49-.39-.74s-.14-.53-.14-.85c0-.83.24-1.45.72-1.86.48-.41,1.22-.61,2.21-.61,1.08,0,1.89.24,2.42.73.53.48.8,1.21.8,2.18,0,.9-.23,1.6-.68,2.1s-1.09.74-1.93.74v-1.58c.82,0,1.24-.41,1.24-1.24,0-.52-.16-.87-.48-1.06-.32-.19-.79-.28-1.4-.28-.57,0-.99.1-1.26.31-.27.21-.41.52-.41.95,0,.52.22.94.67,1.27v1.31h-4.54v-5h1.37v3.64Z"/><path class="cls-7" d="M128.61,138.9c0-.78-.4-1.18-1.21-1.18h-6.11v-1.66h6.13c.85,0,1.5.24,1.96.72.46.48.69,1.18.69,2.11s-.23,1.62-.7,2.1c-.46.48-1.12.72-1.96.72h-6.13v-1.66h6.11c.81,0,1.21-.39,1.21-1.16Z"/><path class="cls-7" d="M124.38,129.16h2.5c2.06,0,3.08.99,3.08,2.96v2.36h-8.66v-2.36c0-1.98,1.03-2.96,3.08-2.96ZM126.81,130.81h-2.39c-.58,0-1,.11-1.27.34-.27.22-.4.59-.4,1.1v.58h5.74v-.52c0-.55-.14-.94-.42-1.16-.28-.22-.7-.34-1.26-.34Z"/><path class="cls-7" d="M126.97,123.88l-5.68-1.5v-2.32h8.66v1.42h-6.82v.02l6.82,1.76v1.25l-6.82,1.76v.02h6.82v1.42h-8.66v-2.32l5.68-1.5v-.02Z"/><path class="cls-7" d="M126.97,114.54l-5.68-1.5v-2.32h8.66v1.42h-6.82v.02l6.82,1.76v1.25l-6.82,1.76v.02h6.82v1.42h-8.66v-2.32l5.68-1.5v-.02Z"/><path class="cls-7" d="M126.97,101.87l-5.68-1.5v-2.32h8.66v1.42h-6.82v.02l6.82,1.76v1.25l-6.82,1.76v.02h6.82v1.42h-8.66v-2.32l5.68-1.5v-.02Z"/><path class="cls-7" d="M125.72,91.81h1.96c.78,0,1.37.2,1.78.61s.62,1,.62,1.79-.21,1.4-.62,1.8c-.42.4-1.01.6-1.79.6h-1.94c-.78,0-1.38-.2-1.79-.61s-.62-1-.62-1.79.21-1.39.62-1.79,1.01-.61,1.79-.61ZM128.76,94.21c0-.27-.07-.49-.2-.65-.14-.16-.32-.24-.54-.24h-2.63c-.22,0-.41.08-.55.23-.14.16-.21.37-.21.65s.07.49.2.65.32.24.55.24h2.63c.22,0,.4-.08.54-.24.14-.16.2-.38.2-.65Z"/><path class="cls-7" d="M129.96,87.33h-.79v.02c.25.15.46.39.64.71.18.32.27.62.27.9,0,.57-.21.99-.64,1.25-.42.27-1.06.4-1.9.4h-1.68c-.85,0-1.49-.14-1.91-.41-.43-.27-.64-.69-.64-1.25,0-.21.06-.43.17-.65.11-.23.3-.51.55-.86h-2.74v-1.51h8.66v1.39ZM124.44,88.37c0,.26.12.44.37.56.24.12.62.17,1.12.17h1.58c.48,0,.84-.06,1.08-.18.24-.12.36-.31.36-.56,0-.17-.04-.33-.11-.47-.07-.15-.19-.29-.36-.44h-3.58c-.17.15-.29.3-.36.44-.07.14-.11.3-.11.48Z"/><path class="cls-7" d="M128.95,82.44c0-.14-.04-.28-.13-.41-.09-.13-.24-.33-.46-.58h-4.93v-1.51h6.53v1.46h-.74c.3.34.52.65.66.91.14.26.2.53.2.79,0,.49-.14.84-.42,1.06s-.68.33-1.21.33h-5.02v-1.51h4.81c.47,0,.71-.18.71-.54Z"/><path class="cls-7" d="M129.96,78.3h-8.66v-1.51h8.66v1.51Z"/><path class="cls-7" d="M125.5,70.48h1.55v3.29h.89c.27,0,.49-.08.66-.23.17-.16.25-.37.25-.65s-.08-.5-.23-.65c-.16-.16-.38-.23-.68-.23v-1.51c.69.04,1.22.26,1.58.67.37.4.55.98.55,1.73s-.21,1.3-.63,1.74c-.42.44-.98.66-1.67.66h-2.2c-.69,0-1.24-.22-1.65-.67-.41-.44-.62-1.02-.62-1.73,0-.46.09-.87.28-1.23.18-.36.44-.65.77-.86s.71-.31,1.15-.31ZM124.53,72.88c0,.29.08.51.24.66s.37.23.64.23h.42v-1.78h-.37c-.29,0-.51.08-.68.23-.16.15-.25.37-.25.66Z"/></svg>