<?xml version="1.0" encoding="UTF-8"?><svg id="_圖層_1" xmlns="http://www.w3.org/2000/svg" viewBox="0 0 285.16 265.73"><defs><style>.cls-1{stroke-width:1.5px;}.cls-1,.cls-2,.cls-3,.cls-4{stroke-miterlimit:10;}.cls-1,.cls-3,.cls-4{fill:none;}.cls-1,.cls-4{stroke:#686868;}.cls-2{fill:#ff0012;stroke:#ff0012;}.cls-2,.cls-3{stroke-width:2px;}.cls-3{stroke:#fff;}.cls-5{fill:#686868;}.cls-5,.cls-6{stroke-width:0px;}.cls-6{fill:#fbfd00;}.cls-4{stroke-width:.5px;}</style></defs><polyline class="cls-4" points="85.84 44.86 85.84 63.82 104.99 67.57"/><line class="cls-4" x1="104.99" y1="142" x2="104.99" y2="101.99"/><polyline class="cls-4" points="72.06 248.71 104.99 248.71 104.99 170.78"/><polyline class="cls-4" points="104.99 77.64 104.99 44.86 .25 44.86 .25 226.19 40.23 226.19 40.23 248.71 61.99 248.71"/><polyline class="cls-4" points="199.31 44.86 199.31 63.82 180.17 67.57"/><line class="cls-4" x1="180.17" y1="142" x2="180.17" y2="101.99"/><polyline class="cls-4" points="213.1 248.71 180.17 248.71 180.17 170.78"/><polyline class="cls-4" points="180.17 77.64 180.17 44.86 284.91 44.86 284.91 226.19 244.93 226.19 244.93 248.71 223.17 248.71"/><rect class="cls-4" x="112.7" y="148.84" width="59.75" height="41.59"/><path class="cls-4" d="M124.79,190.43h35.57v49.54c0,4.83-3.92,8.75-8.75,8.75h-18.08c-4.83,0-8.75-3.92-8.75-8.75v-49.54h0Z"/><line class="cls-4" x1="180.17" y1="190.43" x2="104.99" y2="190.43"/><line class="cls-4" x1="180.17" y1="248.71" x2="104.99" y2="248.71"/><rect class="cls-1" x="120.22" y=".75" width="44.72" height="148.09"/><path class="cls-5" d="M141.89,123.21h2.5c2.06,0,3.08.99,3.08,2.96v2.36h-8.66v-2.36c0-1.98,1.03-2.96,3.08-2.96ZM144.33,124.87h-2.39c-.58,0-1,.11-1.27.34-.27.22-.4.59-.4,1.11v.57h5.74v-.52c0-.55-.14-.94-.42-1.16-.28-.22-.7-.34-1.26-.34Z"/><path class="cls-5" d="M141.89,116.54h2.5c2.06,0,3.08.99,3.08,2.96v2.36h-8.66v-2.36c0-1.98,1.03-2.96,3.08-2.96ZM144.33,118.19h-2.39c-.58,0-1,.11-1.27.34-.27.22-.4.59-.4,1.1v.58h5.74v-.52c0-.55-.14-.94-.42-1.16-.28-.22-.7-.34-1.26-.34Z"/><path class="cls-5" d="M141.4,109.85c1.14,0,1.88.44,2.21,1.31l3.86-1.63v1.78l-3.53,1.44v.79h3.53v1.66h-8.66v-2.44c0-.9.21-1.61.64-2.13.43-.52,1.08-.77,1.95-.77ZM141.38,111.51c-.39,0-.69.1-.89.29s-.31.48-.31.86v.88h2.4v-.89c0-.37-.1-.65-.31-.85s-.5-.29-.89-.29Z"/><path class="cls-5" d="M140.18,107.15h1.8c-.17-.24-.3-.49-.39-.74s-.14-.53-.14-.85c0-.83.24-1.45.72-1.86.48-.41,1.22-.61,2.21-.61,1.08,0,1.89.24,2.42.73.53.48.8,1.21.8,2.18,0,.9-.23,1.6-.68,2.1s-1.09.74-1.93.74v-1.58c.82,0,1.24-.41,1.24-1.24,0-.52-.16-.87-.48-1.06-.32-.19-.79-.28-1.4-.28-.57,0-.99.1-1.26.31-.27.21-.41.52-.41.95,0,.52.22.94.67,1.27v1.31h-4.54v-5h1.37v3.64Z"/><path class="cls-5" d="M146.13,95.6c0-.78-.4-1.18-1.21-1.18h-6.11v-1.66h6.13c.85,0,1.5.24,1.96.72.46.48.69,1.18.69,2.11s-.23,1.62-.7,2.1c-.46.48-1.12.72-1.96.72h-6.13v-1.66h6.11c.81,0,1.21-.39,1.21-1.16Z"/><path class="cls-5" d="M141.89,85.85h2.5c2.06,0,3.08.99,3.08,2.96v2.36h-8.66v-2.36c0-1.98,1.03-2.96,3.08-2.96ZM144.33,87.51h-2.39c-.58,0-1,.11-1.27.34-.27.22-.4.59-.4,1.1v.58h5.74v-.52c0-.55-.14-.94-.42-1.16-.28-.22-.7-.34-1.26-.34Z"/><path class="cls-5" d="M144.48,80.57l-5.68-1.5v-2.32h8.66v1.42h-6.82v.02l6.82,1.76v1.25l-6.82,1.76v.02h6.82v1.42h-8.66v-2.32l5.68-1.5v-.02Z"/><path class="cls-5" d="M144.48,71.24l-5.68-1.5v-2.32h8.66v1.42h-6.82v.02l6.82,1.76v1.25l-6.82,1.76v.02h6.82v1.42h-8.66v-2.32l5.68-1.5v-.02Z"/><path class="cls-5" d="M144.48,58.57l-5.68-1.5v-2.32h8.66v1.42h-6.82v.02l6.82,1.76v1.25l-6.82,1.76v.02h6.82v1.42h-8.66v-2.32l5.68-1.5v-.02Z"/><path class="cls-5" d="M143.24,48.51h1.96c.78,0,1.37.2,1.78.61s.62,1,.62,1.79-.21,1.4-.62,1.8c-.42.4-1.01.6-1.79.6h-1.94c-.78,0-1.38-.2-1.79-.61s-.62-1-.62-1.79.21-1.39.62-1.79,1.01-.61,1.79-.61ZM146.27,50.91c0-.27-.07-.49-.2-.65-.14-.16-.32-.24-.54-.24h-2.63c-.22,0-.41.08-.55.23-.14.16-.21.37-.21.65s.07.49.2.65.32.24.55.24h2.63c.22,0,.4-.08.54-.24.14-.16.2-.38.2-.65Z"/><path class="cls-5" d="M147.47,44.02h-.79v.02c.25.15.46.39.64.71.18.32.27.62.27.9,0,.57-.21.99-.64,1.25-.42.27-1.06.4-1.9.4h-1.68c-.85,0-1.49-.14-1.91-.41-.43-.27-.64-.69-.64-1.25,0-.21.06-.43.17-.65.11-.23.3-.51.55-.86h-2.74v-1.51h8.66v1.39ZM141.95,45.07c0,.26.12.44.37.56.24.12.62.17,1.12.17h1.58c.48,0,.84-.06,1.08-.18s.36-.31.36-.56c0-.17-.04-.33-.11-.47-.07-.15-.19-.29-.36-.44h-3.58c-.17.15-.29.3-.36.44-.07.14-.11.3-.11.48Z"/><path class="cls-5" d="M146.46,39.14c0-.14-.04-.28-.13-.41-.09-.13-.24-.33-.46-.58h-4.93v-1.51h6.53v1.46h-.74c.3.34.52.65.66.91.14.26.2.53.2.79,0,.49-.14.84-.42,1.06s-.68.33-1.21.33h-5.02v-1.51h4.81c.47,0,.71-.18.71-.54Z"/><path class="cls-5" d="M147.47,35h-8.66v-1.51h8.66v1.51Z"/><path class="cls-5" d="M143.02,27.17h1.55v3.29h.89c.27,0,.49-.08.66-.23.17-.16.25-.37.25-.65s-.08-.5-.23-.65c-.16-.16-.38-.23-.68-.23v-1.51c.69.04,1.22.26,1.58.67.37.4.55.98.55,1.73s-.21,1.3-.63,1.74c-.42.44-.98.66-1.67.66h-2.2c-.69,0-1.24-.22-1.65-.67-.41-.44-.62-1.02-.62-1.73,0-.46.09-.87.28-1.23.18-.36.44-.65.77-.86s.71-.31,1.15-.31ZM142.05,29.57c0,.29.08.51.24.66s.37.23.64.23h.42v-1.78h-.37c-.29,0-.51.08-.68.23-.16.15-.25.37-.25.66Z"/><path class="cls-3" d="M110.63,115.19c.14,4.02-.49,8.06-1.81,11.9-2.23,6.5-6.97,20.31-12.44,36.31-7.6,22.24-17.46,18.02-23.37,19.99-13.51,4.5-11.83,17.46-11.83,17.46,0,0-.16,29.28,0,44.49.14,13.37-9.57,12.39-9.57,12.39h-26.98c-.96,0-1.74.78-1.74,1.74v3.36c0,.93.73,1.7,1.67,1.74,3.23.13,11.46.33,27.05-.09,20.13.25,19.44-18.72,19.44-18.72v-45.33c0-10.98,7.75-10,12.28-10.56,14.54-2.32,19.52-14.78,20.82-19.09.53-1.76,1.12-3.49,1.75-5.21,3.19-8.85,10.99-30.85,12.44-38.21.73-5.41.97-10.31.83-14.75"/><path class="cls-3" d="M201.47,51.94c-.74.43-1.1,1.3-.88,2.12l2.07,7.88s2.93,7.28-7.44,8.89c-.71.11-1.41.23-2.1.43-7.16,2.1-32.13,12.8-26.32,56.09,1.45,7.36,9.25,29.36,12.44,38.21.62,1.73,1.22,3.46,1.75,5.21,1.3,4.31,6.28,16.76,20.82,19.09,4.82.56,12.28-.42,12.28,10.56v45.33s-.69,18.97,19.44,18.72c15.59.42,23.82.22,27.05.09.93-.04,1.67-.81,1.67-1.74v-3.36c0-.96-.78-1.74-1.74-1.74h-26.98s-9.71.99-9.57-12.39c.16-15.2,0-44.49,0-44.49,0,0,1.69-12.95-11.83-17.46-5.91-1.97-15.77,2.25-23.37-19.99-5.47-16-10.21-29.81-12.44-36.31s-2.47-13.06-.59-19.42c.11-.38.23-.76.36-1.15,3.1-9.29,5.07-13.51,5.07-13.51,0,0,3.1-10.65,19.23-15.64.97-.3,1.92-.64,2.85-1.06,4.5-2.05,13.35-7.03,5.79-24.82-.33-.78-1.15-1.23-1.99-1.12-1.57.22-4.07.69-5.59,1.56Z"/><rect class="cls-6" x="120.22" y="107.51" width="7.3" height="21.77"/><rect class="cls-6" x="157.64" y="107.41" width="7.3" height="21.77"/><path class="cls-2" d="M165.94,112.6c.99-31.08,20.88-39.51,27.15-41.34.69-.2,1.39-.33,2.1-.43,10.37-1.61,7.44-8.89,7.44-8.89l-2.07-7.88c-.22-.83.14-1.7.88-2.12,1.52-.88,4.02-1.35,5.59-1.56.84-.12,1.66.34,1.99,1.12,7.56,17.79-1.29,22.77-5.79,24.82-.92.42-1.88.76-2.85,1.06-16.13,4.99-19.23,15.64-19.23,15.64,0,0-1.97,4.22-5.07,13.51-.13.39-.25.77-.36,1.15-.72,2.46-1.12,4.98-1.21,7.52l-8.55-2.59Z"/><path class="cls-2" d="M110.63,115.19c-.09-2.54-.49-5.06-1.21-7.52-.11-.38-.23-.76-.36-1.15-3.1-9.29-5.07-13.51-5.07-13.51,0,0-3.1-10.65-19.23-15.64-.97-.3-1.92-.64-2.85-1.06-4.5-2.05-13.35-7.03-5.79-24.82.33-.78,1.15-1.23,1.99-1.12,1.57.22,4.07.69,5.59,1.56.74.43,1.1,1.3.88,2.12l-2.07,7.88s-2.93,7.28,7.44,8.89c.71.11,1.41.23,2.1.43,6.27,1.84,26.16,10.26,27.15,41.34l-8.55,2.59Z"/></svg>